<?xml version="1.0" encoding="UTF-8" standalone="no"?>
<!-- Created with Inkscape (http://www.inkscape.org/) -->

<svg
   version="1.1"
   id="svg1"
   width="144"
   height="423.33334"
   viewBox="0 0 144 423.33334"
   sodipodi:docname="Silhouette.svg"
   inkscape:version="1.3.2 (091e20e, 2023-11-25)"
   xmlns:inkscape="http://www.inkscape.org/namespaces/inkscape"
   xmlns:sodipodi="http://sodipodi.sourceforge.net/DTD/sodipodi-0.dtd"
   xmlns="http://www.w3.org/2000/svg"
   xmlns:svg="http://www.w3.org/2000/svg">
  <defs
     id="defs1" />
  <sodipodi:namedview
     id="namedview1"
     pagecolor="#ffffff"
     bordercolor="#000000"
     borderopacity="0.25"
     inkscape:showpageshadow="2"
     inkscape:pageopacity="0.0"
     inkscape:pagecheckerboard="0"
     inkscape:deskcolor="#d1d1d1"
     inkscape:zoom="1.3704214"
     inkscape:cx="31.37721"
     inkscape:cy="196.28999"
     inkscape:window-width="1096"
     inkscape:window-height="845"
     inkscape:window-x="0"
     inkscape:window-y="38"
     inkscape:window-maximized="0"
     inkscape:current-layer="g1" />
  <g
     inkscape:groupmode="layer"
     inkscape:label="Image"
     id="g1">
    <path
       style="fill:#000000;stroke-width:0.978746"
       d="m 44.136298,389.52056 c -0.467149,-0.51693 -0.849375,-1.69706 -0.849375,-2.62253 0,-1.64473 0.358776,-2.01075 5.583491,-5.69616 6.225432,-4.3913 5.952163,-17.83463 -0.751745,-36.9824 -4.167692,-11.90381 -5.034757,-17.61714 -3.899407,-25.69453 0.981567,-6.98339 1.116373,-21.03769 0.302612,-31.55009 -0.583062,-7.53217 -1.311837,-10.33031 -7.165717,-27.51278 -10.556018,-30.98432 -12.28309,-37.85587 -12.28309,-48.87092 v -7.22562 l 3.094235,-14.15883 c 3.441184,-15.74644 5.057788,-20.75009 9.118648,-28.22356 l 2.766743,-5.09182 -0.04514,-3.24018 c -0.0764,-5.48246 -1.612795,-15.95765 -2.453682,-16.72873 l -0.796573,-0.73042 -0.800279,2.4198 c -0.440166,1.3309 -1.024463,6.07775 -1.298458,10.54858 l -0.498157,8.12878 -7.698284,20.86191 -7.698279,20.86191 0.578043,4.46236 c 1.857732,14.34124 -0.950616,29.81403 -4.774026,26.30284 l -1.069973,-0.98259 v -5.27031 -5.2703 h -1.008366 c -1.221262,0 -2.01038,2.44193 -2.036372,6.30157 l -0.01927,2.86249 2.042676,2.34637 c 1.123472,1.2905 2.649709,3.04077 3.39164,3.88947 l 1.348964,1.54311 -1.008518,0.59409 c -0.903266,0.5321 -3.2223,0.38145 -6.115208,-0.39726 -0.5617357,-0.15121 -2.4767442,-2.16829 -4.2555748,-4.48241 l -3.234237,-4.20751 v -5.71374 -5.71374 l 1.7753141,-4.29516 c 3.0918834,-7.48044 3.5628714,-9.68284 4.3283948,-20.24007 2.7624199,-38.09611 2.6847069,-37.50263 5.8133759,-44.39562 0.971127,-2.13955 2.000243,-6.62888 2.723445,-11.88051 0.639356,-4.64279 1.272579,-8.6092 1.40716,-8.81427 0.451117,-0.68737 3.017285,-24.35524 3.017285,-27.828548 0,-12.27042 4.245211,-17.124047 19.611669,-22.422364 11.440067,-3.944511 15.40724,-5.96433 16.891376,-8.599977 L 59.2759,63.839867 58.957865,58.790691 58.639831,53.741514 55.755583,48.895513 c -1.586342,-2.6653 -3.263839,-4.846001 -3.727761,-4.846001 -6.155716,0 -9.340462,-16.359763 -3.308655,-16.996313 l 1.887331,-0.199174 0.460235,-4.276027 c 2.618383,-24.3272874 39.737575,-24.0056331 42.463076,0.367961 l 0.47197,4.220711 h 1.879987 c 4.289794,0 4.908364,4.811973 1.482769,11.534543 l -2.139948,4.199532 -2.029072,0.703347 c -1.408977,0.488401 -2.462527,1.571625 -3.447414,3.544514 -0.780088,1.562641 -2.044943,3.75643 -2.810783,4.875086 l -1.392431,2.03392 -0.106454,5.267319 -0.106444,5.267317 1.422101,1.765473 c 1.939735,2.408098 5.491703,4.121743 16.78216,8.096547 16.41996,5.780652 18.26686,8.303449 19.62663,26.809322 0.61636,8.38843 2.39759,23.35877 3.01317,25.32426 0.16156,0.51586 0.74902,4.18397 1.30545,8.15135 0.67925,4.84306 1.69365,8.77742 3.08695,11.9729 2.48378,5.6964 3.73768,15.97325 5.17393,42.4048 0.5989,11.0217 1.52685,15.02617 5.42483,23.41032 l 1.14514,2.46309 -0.26051,5.35303 -0.2605,5.35304 -2.79203,3.77479 c -3.31319,4.47939 -3.95735,4.99667 -6.84855,5.49959 -4.89048,0.85068 -5.39302,-0.63618 -1.52756,-4.51962 3.56757,-3.58417 4.73252,-10.33989 2.18621,-12.67827 -1.63735,-1.50364 -2.30443,0.20405 -1.84364,4.71972 l 0.45716,4.48023 -1.4267,1.5503 -1.42669,1.5503 -1.01313,-1.20289 c -0.55722,-0.66159 -1.15177,-2.0685 -1.32119,-3.12646 -0.16944,-1.05795 -0.67774,-4.11209 -1.12956,-6.78695 -0.53637,-3.17539 -0.64037,-6.86489 -0.29964,-10.62994 0.93373,-10.31803 0.83622,-10.75918 -7.15895,-32.38685 l -7.46252,-20.1868 v -6.34057 c 0,-7.85142 -2.46724,-16.68448 -3.64225,-13.03973 -0.80076,2.48391 -1.80489,11.16878 -1.80489,15.6109 v 4.67122 l 2.36233,4.01793 c 3.05792,5.201 5.95289,13.25664 7.86238,21.87806 7.26226,32.78947 7.31135,32.36137 -9.35646,81.6004 l -4.76248,14.06905 -0.84314,9.37935 c -1.565225,17.4119 -1.619284,20.46486 -0.446237,25.20116 0.646917,2.61202 1.098257,7.22766 1.098257,11.23141 0,7.12637 -0.46947,9.26025 -4.778444,21.71944 -1.189399,3.4391 -2.777528,8.36326 -3.529172,10.94259 l -1.366632,4.68968 0.464709,6.5168 c 0.284719,3.99266 0.985673,7.7955 1.809719,9.8181 l 1.34501,3.3013 2.51673,1.41108 c 4.3551,2.44181 5.42459,4.95706 2.9738,6.99387 l -1.245186,1.03485 H 87.831724 76.820843 l -1.36179,-1.25058 c -0.748978,-0.68783 -1.356807,-1.60231 -1.35073,-2.03219 0.01532,-1.08353 2.424922,-12.42634 3.686111,-17.35181 1.463465,-5.71547 1.346807,-8.34311 -1.035943,-23.33503 l -2.105018,-13.24447 0.371593,-6.2529 c 0.20438,-3.4391 0.863551,-8.78533 1.464833,-11.88052 1.225453,-6.30818 1.398723,-18.61113 0.343466,-24.38633 -0.377037,-2.06346 -0.687309,-8.79126 -0.689474,-14.95069 -0.002,-6.15942 -0.495737,-15.44498 -1.096825,-20.63457 l -1.092883,-9.43566 0.308669,-16.72869 0.308668,-16.72871 -0.885346,-0.67477 c -1.024841,-0.78108 -3.406193,-0.25028 -3.854938,0.85927 -0.168572,0.4168 0.0071,5.53139 0.390815,11.36576 l 0.697298,10.60795 -0.871252,11.58986 c -0.479192,6.37442 -1.113821,18.76507 -1.410295,27.53477 -0.296463,8.76969 -0.734709,16.64836 -0.973876,17.50813 -1.103658,3.96763 -1.188183,15.46314 -0.154007,20.94723 0.583674,3.09519 1.416391,8.58211 1.85047,12.19316 l 0.789229,6.56555 -1.064633,6.8782 c -0.585553,3.78301 -1.562964,9.83269 -2.172028,13.44374 -1.328015,7.87369 -1.024167,18.313 0.654412,22.48336 0.616908,1.53269 1.47952,5.38876 1.916918,8.56903 l 0.795265,5.78234 -1.260688,1.27928 -1.260679,1.27929 H 56.371937 44.985674 Z"
       id="path1" />
    <!-- Adding clickable areas -->
    <rect
       id="head"
       x="43.432678"
       y="4.3782153"
       width="58.594055"
       height="64.431671"
       fill="transparent"
       style="fill:none;stroke-width:0.911393" />
    <rect
       id="right_arm"
       x="2.4871385"
       y="75.539589"
       width="34.678261"
       height="162.59001"
       fill="transparent"
       style="fill:none;stroke-width:0.911393"
       inkscape:label="right_arm" />
    <rect
       id="left_arm"
       x="107.40193"
       y="70.488144"
       width="35.407963"
       height="166.23854"
       fill="transparent"
       style="fill:none;stroke-width:0.911393"
       inkscape:label="left_arm" />
    <rect
       id="torso"
       x="36.702976"
       y="71.757439"
       width="70.594055"
       height="139.05446"
       fill="transparent"
       style="fill:none;stroke-width:0.911393" />
    <rect
       id="right_leg"
       x="34.513866"
       y="210.0822"
       width="36.298031"
       height="186.56734"
       fill="transparent"
       style="fill:none;stroke-width:0.911393"
       inkscape:label="right_leg" />
    <rect
       id="left_leg"
       x="71.754417"
       y="211.72569"
       width="37.027744"
       height="180.72963"
       fill="transparent"
       style="fill:none;stroke-width:0.911393"
       inkscape:label="left_leg" />
  </g>
</svg>
